<svg width="64" height="24" viewBox="0 0 64 24" fill="none" xmlns="http://www.w3.org/2000/svg">
<path d="M10.4062 22.9219H6.90625V3.39062H0V0.375H17.2969V3.39062H10.4062V22.9219ZM42.9688 22.9219H39.7656V6.32812H39.6562L32.8594 22.75H30.2656L23.4531 6.32812H23.3438V22.9219H20.1562V0.375H24.2031L31.5 18.1719H31.625L38.9062 0.375H42.9688V22.9219ZM46.125 16.6406H49.5781C49.8281 18.875 52 20.3438 54.9688 20.3438C57.8125 20.3438 59.8594 18.875 59.8594 16.8594C59.8594 15.1094 58.625 14.0625 55.7031 13.3438L52.7812 12.6406C48.6406 11.6406 46.7188 9.70312 46.7188 6.5625C46.7188 2.67188 50.1094 0 54.9219 0C59.6875 0 62.9531 2.67188 63.0625 6.5625H59.6562C59.4531 4.3125 57.5938 2.95312 54.875 2.95312C52.1562 2.95312 50.2969 4.32812 50.2969 6.32812C50.2969 7.92188 51.4844 8.85938 54.3906 9.57812L56.875 10.1875C61.5 11.2812 63.4219 13.1406 63.4219 16.4375C63.4219 20.6562 60.0625 23.2969 54.7188 23.2969C49.7188 23.2969 46.3438 20.7188 46.125 16.6406Z" fill="url(#paint0_linear_549_302)"/>
<defs>
<linearGradient id="paint0_linear_549_302" x1="32.2344" y1="-7.07813" x2="32.2344" y2="30.9219" gradientUnits="userSpaceOnUse">
<stop stop-color="#00F2FE"/>
<stop offset="1" stop-color="#3865F8"/>
</linearGradient>
</defs>
</svg>
